<?xml version="1.0" encoding="UTF-8"?>
<svg version="1.1" xmlns="http://www.w3.org/2000/svg" width="512" height="512">
<path d="M0 0 C0.80224503 -0.00540298 1.60449005 -0.01080597 2.43104553 -0.01637268 C5.07485187 -0.0288489 7.71756685 -0.01237686 10.36132812 0.00561523 C12.20308489 0.00546022 14.04484198 0.00397084 15.88659668 0.00120544 C19.74339244 -0.00017805 23.5998161 0.01237119 27.45654297 0.03515625 C32.39635729 0.06354073 37.33555345 0.0608029 42.27541351 0.04806614 C46.07758855 0.04110596 49.87962111 0.04890213 53.68177795 0.06132317 C55.50301059 0.06583437 57.32425854 0.06617736 59.14549255 0.06225777 C61.69236522 0.05934221 64.23839073 0.07586853 66.78515625 0.09765625 C67.53543594 0.0931546 68.28571564 0.08865295 69.05873108 0.08401489 C73.51070391 0.14718645 76.34951688 0.76532377 79.89257812 3.50170898 C83.96943006 9.01462965 83.34292647 15.30865042 83.32617188 21.87280273 C83.33141373 23.0684938 83.33665558 24.26418488 83.34205627 25.49610901 C83.34846859 28.02018458 83.34714976 30.54429006 83.33862305 33.06835938 C83.33011537 36.92233693 83.35888496 40.77483093 83.390625 44.62866211 C83.39223724 47.08504187 83.39165905 49.54142426 83.38867188 51.99780273 C83.39990585 53.14590927 83.41113983 54.29401581 83.42271423 55.47691345 C83.36633 61.97574874 83.11394338 66.40412244 78.89257812 71.50170898 C72.51275027 75.78343243 65.07153866 74.88354133 57.64648438 74.79467773 C56.26643843 74.78907441 54.88638647 74.7848078 53.5063324 74.78181458 C49.8944111 74.77042355 46.28285838 74.74100703 42.67108154 74.70770264 C38.97738631 74.67687691 35.28363086 74.66328268 31.58984375 74.64819336 C24.35723532 74.61613071 17.12500556 74.56341102 9.89257812 74.50170898 C9.89257812 82.42170898 9.89257812 90.34170898 9.89257812 98.50170898 C11.89320313 98.41920898 13.89382813 98.33670898 15.95507812 98.25170898 C41.34948067 97.93507055 66.17831224 106.99858143 88.89257812 117.50170898 C89.63556152 117.84492187 90.37854492 118.18813477 91.14404297 118.54174805 C108.60557847 126.71149459 124.48865607 137.34965291 138.65820312 150.45874023 C140.54208511 152.18124072 142.46392443 153.78287266 144.45507812 155.37670898 C149.27009646 159.47964714 153.02801912 164.52533578 156.89257812 169.50170898 C157.56417969 170.34604492 158.23578125 171.19038086 158.92773438 172.06030273 C169.93188357 186.43351549 177.32771752 202.54768473 179.89257812 220.50170898 C59.11257813 220.50170898 -61.66742188 220.50170898 -186.10742188 220.50170898 C-181.38659172 198.47116827 -173.61143997 181.42886835 -159.10742188 164.50170898 C-158.64932129 163.96384766 -158.1912207 163.42598633 -157.71923828 162.87182617 C-151.47032559 155.60771508 -144.72532244 149.33783169 -137.10742188 143.50170898 C-136.20765625 142.7862793 -135.30789062 142.07084961 -134.38085938 141.33374023 C-103.93637011 117.64071484 -62.55390205 98.30117369 -23.33862305 98.47875977 C-22.64259727 98.48041641 -21.9465715 98.48207306 -21.22945404 98.48377991 C-19.52210495 98.48808273 -17.81476187 98.49466758 -16.10742188 98.50170898 C-16.11741463 96.86798843 -16.11741463 96.86798843 -16.12760925 95.20126343 C-16.18845482 84.93129533 -16.23341111 74.66136386 -16.26285839 64.39125633 C-16.27850653 59.11142838 -16.29972942 53.83174608 -16.33374023 48.55200195 C-16.3663638 43.45564977 -16.3842813 38.3594376 -16.3920536 33.26298904 C-16.39759171 31.31974713 -16.40840629 29.37651277 -16.42461205 27.43333054 C-16.44642606 24.70904806 -16.44938713 21.98534226 -16.44799805 19.26098633 C-16.45878387 18.45969299 -16.4695697 17.65839966 -16.48068237 16.83282471 C-16.44710047 10.73617185 -15.18884258 6.73856632 -10.92663574 2.1580658 C-7.26621627 0.00748021 -4.126463 -0.05317286 0 0 Z " fill="#000000" transform="translate(259.107421875,-0.501708984375)"/>
<path d="M0 0 C1.63320023 -0.00302245 3.26639905 -0.0069124 4.89959538 -0.01159257 C9.37726215 -0.02186926 13.85484882 -0.01969158 18.33252215 -0.01541197 C23.16561924 -0.01294416 27.99869708 -0.0219596 32.83178711 -0.02944946 C42.29634368 -0.04219689 51.76087189 -0.0439901 61.2254356 -0.0416492 C68.91871733 -0.03986595 76.61199045 -0.04161583 84.30527115 -0.04587364 C85.947879 -0.04676643 85.947879 -0.04676643 87.62367085 -0.04767724 C89.84833327 -0.048889 92.07299569 -0.05010313 94.2976581 -0.05131962 C115.15920911 -0.06219531 136.02074395 -0.06003251 156.88229586 -0.05393478 C175.96423809 -0.04876546 195.04612927 -0.06002141 214.1280614 -0.07903299 C233.72504284 -0.09840795 253.32200013 -0.106668 272.91899121 -0.10290974 C283.91974449 -0.1009972 294.92045433 -0.1034905 305.9211998 -0.11762428 C315.28612056 -0.12953466 324.65097113 -0.13094679 334.01589285 -0.11883412 C338.7928115 -0.11294308 343.56960172 -0.11185227 348.34651184 -0.12383652 C352.72243157 -0.13468709 357.09811553 -0.13160176 361.47402419 -0.11757483 C363.05403317 -0.11492564 364.63406057 -0.11730143 366.21405147 -0.1253107 C387.40272684 -0.22523461 387.40272684 -0.22523461 395.60281372 7.51069641 C400.48592302 13.32886919 402.46115505 20.01550088 402.34109497 27.50288391 C401.57193367 35.37285321 398.35171606 40.76374383 392.36453247 45.78804016 C386.89252765 49.30242827 382.4537621 50.63539575 375.95997906 50.64380646 C375.27617189 50.64876597 374.59236472 50.65372549 373.88783613 50.65883529 C371.60356571 50.67175686 369.31988317 50.66341801 367.03559875 50.65510559 C365.37851034 50.65999614 363.72142534 50.66618671 362.06434613 50.67356348 C357.51598372 50.68996544 352.96779462 50.68764454 348.41941297 50.68218851 C343.51198345 50.67951863 338.60460016 50.69404937 333.69718933 50.70628357 C324.08476648 50.72734173 314.47240395 50.73187819 304.85996076 50.73009568 C297.04651355 50.72878821 289.23308516 50.73259144 281.41964149 50.74002075 C279.16922754 50.74211994 276.91881359 50.74421754 274.66839963 50.74631357 C273.5483112 50.7473571 272.42822276 50.74840063 271.27419225 50.74947578 C250.08835361 50.76837982 228.9025496 50.76732749 207.71670602 50.76050645 C188.33720601 50.75493129 168.95783821 50.77575502 149.5783691 50.80886692 C129.67856944 50.84260389 109.7788331 50.85777221 89.8790043 50.85314989 C78.70717681 50.85090516 67.5354715 50.85614896 56.36366844 50.88104248 C46.85229484 50.90205569 37.34111042 50.90564736 27.82972904 50.88674289 C22.9778014 50.87758511 18.12622649 50.8764434 13.27432632 50.89709854 C8.82976133 50.91581017 4.38583791 50.91130301 -0.05870267 50.88855273 C-1.66364149 50.88436743 -3.26862951 50.88856466 -4.8735163 50.90214866 C-14.7338007 50.97990146 -23.18779944 50.44181493 -30.8228038 43.55096579 C-35.82212557 38.35843701 -38.02343345 32.46051338 -38.36593628 25.32319641 C-38.1296692 18.01016791 -35.0118258 11.49359739 -29.92843628 6.26069641 C-20.99627908 -0.84442863 -10.8238649 -0.02834149 0 0 Z " fill="#000000" transform="translate(73.92843627929688,242.7393035888672)"/>
<path d="M0 0 C1.07931373 -0.00961943 1.07931373 -0.00961943 2.18043178 -0.0194332 C4.59840992 -0.03607399 7.01540244 -0.02417227 9.43339729 -0.01244164 C11.18164573 -0.01848124 12.92988888 -0.02625848 14.67812264 -0.03562677 C19.48766967 -0.05624899 24.29691957 -0.05180753 29.10649133 -0.04326558 C34.2913495 -0.03834232 39.47613508 -0.0563454 44.66096687 -0.07134056 C54.82078247 -0.09687028 64.98049244 -0.10041751 75.14033471 -0.09574004 C83.39674725 -0.09217732 91.65312767 -0.09566514 99.90953636 -0.10418892 C101.67061835 -0.10597449 101.67061835 -0.10597449 103.46727774 -0.10779613 C105.85219796 -0.11021957 108.23711817 -0.11264784 110.62203838 -0.11508088 C133.00001884 -0.13684579 155.37793906 -0.13250035 177.75592293 -0.12031119 C198.23690786 -0.10997198 218.71770257 -0.13248345 239.19864987 -0.17050762 C260.21822067 -0.20923324 281.23770141 -0.22578189 302.25730813 -0.21826112 C314.06233358 -0.21443223 325.86719712 -0.21945926 337.67219353 -0.2476902 C347.72208063 -0.27148021 357.77170616 -0.27437024 367.82159673 -0.25010987 C372.95064365 -0.23830556 378.07921171 -0.23620604 383.20822716 -0.26011467 C387.9026078 -0.28174322 392.5961072 -0.27573457 397.29044582 -0.2475913 C398.98960164 -0.2422725 400.68882553 -0.24710858 402.38791476 -0.26306303 C416.66957873 -0.38787097 416.66957873 -0.38787097 421.27659988 3.36822891 C426.22368516 8.61863567 425.04012984 15.85614277 425.07771492 22.59537697 C425.08921434 24.03069877 425.10963426 25.46597849 425.13923836 26.90104103 C425.45018845 41.98298913 425.45018845 41.98298913 420.7825489 47.50895119 C417.20994022 49.9300849 413.91681985 49.76056791 409.68255901 49.76342678 C408.60407726 49.7682365 408.60407726 49.7682365 407.50380799 49.77314338 C405.08195735 49.78147932 402.6603517 49.77550662 400.23849678 49.7696476 C398.489691 49.77266664 396.74088655 49.77655488 394.99208444 49.78124017 C390.17648499 49.79156072 385.36095965 49.78932806 380.54535401 49.78505957 C375.35576956 49.78259969 370.1662033 49.79159728 364.97662544 49.79909706 C354.80600036 49.81186655 344.63540165 49.81363497 334.46476991 49.8112968 C326.20069749 49.80951604 317.9366331 49.81125806 309.67256165 49.81552124 C308.49779405 49.81611643 307.32302646 49.81671162 306.11265985 49.81732484 C303.72636664 49.81853655 301.34007343 49.81975069 298.95378023 49.82096722 C276.55966464 49.83185136 254.16556409 49.82967609 231.77144765 49.82358237 C211.26970542 49.81841203 190.76801069 49.82967021 170.26627786 49.84868059 C149.23094174 49.86803672 128.19562812 49.87631893 107.16028303 49.87255734 C95.34417594 49.87064196 83.52810928 49.87316557 71.71200943 49.88727188 C61.65332197 49.8991583 51.59469984 49.90062141 41.53601152 49.88848171 C36.40127118 49.88257382 31.26665048 49.88154613 26.13191795 49.89348412 C21.43474877 49.90427814 16.73780007 49.90131737 12.04064148 49.88722243 C10.33812627 49.88455754 8.63559414 49.88699775 6.93309546 49.89495829 C4.62458803 49.90500622 2.31685568 49.89669289 0.00837994 49.8836813 C-1.27556453 49.88373631 -2.559509 49.88379133 -3.88236088 49.88384801 C-7.49131768 49.4781659 -9.34945002 48.6966285 -12.2174511 46.50895119 C-15.10906502 42.07990856 -15.6015594 38.54940718 -15.6158886 33.31754494 C-15.61875877 32.6498156 -15.62162895 31.98208626 -15.62458611 31.2941227 C-15.6266157 29.89152102 -15.62116355 28.48889032 -15.60856438 27.08634377 C-15.59246706 24.9485714 -15.60846143 22.81268181 -15.62760735 20.67496681 C-15.62562521 19.30582205 -15.62178214 17.93667845 -15.6158886 16.56754494 C-15.61250481 15.33318703 -15.60912102 14.09882912 -15.60563469 12.82706642 C-15.05011381 8.07858579 -13.43358409 5.69798744 -10.05681694 2.39645827 C-6.4610966 0.00615424 -4.29893165 0.00581169 0 0 Z " fill="#000000" transform="translate(51.217451095581055,462.4910488128662)"/>
<path d="M0 0 C16.5 0 33 0 50 0 C50 40.59 50 81.18 50 123 C33.5 123 17 123 0 123 C0 82.41 0 41.82 0 0 Z " fill="#000000" transform="translate(377,316)"/>
<path d="M0 0 C16.5 0 33 0 50 0 C50 40.59 50 81.18 50 123 C33.5 123 17 123 0 123 C0 82.41 0 41.82 0 0 Z " fill="#000000" transform="translate(280,316)"/>
<path d="M0 0 C16.5 0 33 0 50 0 C50 40.59 50 81.18 50 123 C33.5 123 17 123 0 123 C0 82.41 0 41.82 0 0 Z " fill="#000000" transform="translate(182,316)"/>
<path d="M0 0 C16.5 0 33 0 50 0 C50 40.59 50 81.18 50 123 C33.5 123 17 123 0 123 C0 82.41 0 41.82 0 0 Z " fill="#000000" transform="translate(85,316)"/>
</svg>
